<svg width="150" height="150" viewBox="0 0 150 150" fill="none" xmlns="http://www.w3.org/2000/svg">
<path d="M123.135 53.1212C123.467 53.1212 123.863 53.1233 124.293 53.1256C125.742 53.1333 127.578 53.1431 128.669 53.0808C128.628 53.3231 128.588 53.5655 128.588 53.8078C128.588 54.0501 128.628 54.2925 128.669 54.5348L128.269 54.503C126.821 54.3872 125.13 54.2521 123.135 54.2521C121.439 54.2521 120.348 54.3329 118.854 54.454C118.894 54.2117 118.935 53.9694 118.935 53.727C118.935 53.4847 118.894 53.2423 118.854 53C120.267 53.0808 121.681 53.1212 123.135 53.1212Z" fill="#282828"/>
<path d="M18.3231 72.67C18.3231 76.0223 18.1616 79.4151 18 82.7674C20.4234 82.6463 22.8064 82.5655 25.2298 82.5655C27.6128 82.5655 31.2479 82.6463 33.6309 82.7674C33.5097 82.3635 33.429 82 33.429 81.5961C33.429 81.1922 33.5097 80.8287 33.6309 80.4248C29.7131 80.9499 25.3106 80.9499 21.6351 80.9499C21.6259 80.0758 21.6146 79.1618 21.6026 78.1941C21.5621 74.9143 21.5139 71.0177 21.5139 65.9652C21.5139 62.6129 21.6755 59.2201 21.837 55.8677C21.1504 55.9889 20.5446 56.0697 19.8983 56.0697C19.2925 56.0697 18.6462 55.9889 18 55.8677C18.1616 59.2201 18.3231 62.6129 18.3231 65.9652V72.67Z" fill="#282828"/>
<path d="M63.5195 82.5655C62.9137 82.5655 62.2674 82.6463 61.6212 82.7674C61.7828 79.4151 61.9443 76.0223 61.9039 72.67V65.9652C61.9039 62.6129 61.7424 59.2201 61.5808 55.8677C62.2271 55.9889 62.8733 56.0697 63.4791 56.0697C64.085 56.0697 64.7312 55.9889 65.3775 55.8677C65.2159 59.2201 65.0543 62.6129 65.0543 65.9652V68.1059C65.0543 68.3482 65.1351 68.429 65.2967 68.429C65.4477 68.429 65.5281 68.3585 65.8017 68.1185L65.8621 68.0655C69.4972 64.9151 73.9401 60.0279 77.6156 55.8677C78.1407 55.9889 78.6658 56.0697 79.2312 56.0697C79.8371 56.0697 80.4833 55.9889 81.0892 55.8677C77.4944 59.0182 71.436 64.7939 68.6087 68.0251C71.1643 70.9002 73.7648 73.88 76.401 76.9007L76.4023 76.9021L76.403 76.9029C78.0992 78.8465 79.8101 80.807 81.5334 82.7674C80.766 82.6463 79.9582 82.5655 79.1908 82.5655C78.5042 82.5655 77.7368 82.6463 77.0502 82.7674C73.3343 78.2034 67.4777 71.0544 65.7814 69.358C65.539 69.1156 65.4179 69.0349 65.2967 69.0349C65.1755 69.0349 65.0947 69.156 65.0947 69.2772V72.67C65.0947 76.0223 65.2563 79.4151 65.4179 82.7674C64.7716 82.6463 64.1254 82.5655 63.5195 82.5655Z" fill="#282828"/>
<path d="M115.542 72.6295C115.542 75.9815 115.38 79.3739 115.219 82.7664C117.602 82.6452 121.56 82.5654 123.943 82.5654C126.326 82.5654 130.204 82.6462 132.465 82.7673C132.385 82.4038 132.344 81.9999 132.344 81.6364C132.344 81.2729 132.385 80.7882 132.465 80.4247C130.002 80.9094 122.247 80.9498 118.773 80.9498C118.733 79.9804 118.692 78.0821 118.692 75.0932C118.692 71.337 118.692 70.3676 118.733 69.4387C120.591 69.4387 128.669 69.5194 131.334 69.8022C131.254 69.3983 131.213 69.0348 131.213 68.6309C131.213 68.227 131.254 67.8231 131.334 67.4192C129.032 67.6211 123.297 67.8231 118.733 67.8231C118.733 67.4263 118.726 66.8334 118.718 66.1329C118.706 65.1218 118.692 63.8865 118.692 62.6935C118.692 61.5487 118.736 60.5948 118.78 59.6458C118.809 59.0213 118.838 58.3989 118.854 57.7256C123.943 57.7256 128.992 58.0083 132.263 58.2506C132.183 57.8467 132.142 57.4832 132.142 57.0793C132.142 56.6754 132.183 56.3119 132.263 55.908C129.961 56.0292 126.124 56.11 123.782 56.11C121.439 56.11 117.521 56.0292 115.178 55.908C115.34 59.22 115.502 62.6128 115.502 65.9651V72.6295H115.542Z" fill="#282828"/>
<path d="M55.5731 82.7655L55.5626 82.7674L55.603 82.8481L55.5731 82.7655Z" fill="#282828"/>
<path d="M57.6225 82.5654C56.9394 82.5654 56.2562 82.6454 55.5731 82.7655L52.6949 74.8105C52.6949 74.8105 51.5236 71.7813 50.8774 70.0849C50.7103 69.6171 50.3221 68.6826 49.8475 67.5742C44.1718 71.0095 39.977 76.9953 39.1645 82.7674C39.1645 82.7674 37.9124 82.5654 37.1046 82.5654C36.2968 82.5654 35.0447 82.7674 35.0447 82.7674C37.5482 74.9438 42.7571 68.9237 49.2738 66.2456C48.1041 63.5554 46.7576 60.5529 46.7576 60.5529L43.1225 68.9944C42.3551 69.4387 40.6587 71.2158 40.0933 71.9429C42.5067 66.6475 43.1802 65.0085 44.1009 62.7679C44.7674 61.1462 45.5634 59.2092 47.2423 55.3426H47.9693C48.7163 57.1228 49.5431 59.1031 50.4051 61.1677L50.4057 61.169C50.9712 62.5236 51.5519 63.9146 52.1351 65.3088C54.0371 64.8391 56.0243 64.6431 58.067 64.7535C56.1447 64.9408 54.2766 65.4468 52.5095 66.2036C55.4323 73.1853 58.3507 80.0779 59.6824 82.7674C58.9958 82.6462 58.3091 82.5654 57.6225 82.5654Z" fill="#282828"/>
<path d="M83.2297 82.7674C84.5222 74.1643 85.9763 63.6225 86.784 55.3426H87.3899C90.7019 62.6532 94.1754 69.5195 97.8913 76.83C98.6161 75.3201 100.425 71.7728 102.502 67.699L102.503 67.6968L102.505 67.6926L102.506 67.6914L102.508 67.6876C104.596 63.5918 106.955 58.9651 108.756 55.3426H109.241L109.283 55.7325C110.356 65.5411 111.276 73.9579 112.432 82.7674C111.826 82.6462 111.301 82.5654 110.695 82.5654C110.129 82.5654 109.402 82.6462 108.797 82.7674C108.312 75.7799 107.787 69.3175 107.019 62.6532H106.939C106.486 63.5469 106.033 64.4375 105.581 65.3272L105.579 65.3297L105.578 65.3328C102.717 70.9552 99.8762 76.5399 97.3662 82.6058H97.0431C94.8469 77.5546 92.3827 72.3815 89.8964 67.1624L89.896 67.1614C89.1816 65.6619 88.4655 64.1585 87.7534 62.6532H87.6726C86.986 69.0752 86.0166 78.3649 85.9763 82.7674C85.532 82.6462 85.1281 82.5654 84.6838 82.5654C84.2395 82.5654 83.674 82.6462 83.2297 82.7674Z" fill="#282828"/>
<path d="M18.0808 94.1169C18.0808 94.9651 18.0404 95.8133 18 96.6615C18.1616 96.6211 18.3231 96.6211 18.4847 96.6211C18.6462 96.6211 18.8078 96.6211 18.9694 96.6615C18.929 95.8133 18.8886 94.9651 18.8886 94.1169V92.4205C18.8886 91.5724 18.929 90.7242 18.9694 89.876C18.8078 89.9164 18.6462 89.9164 18.4847 89.9164C18.3231 89.9164 18.1616 89.9164 18 89.876C18.0404 90.7242 18.0808 91.5724 18.0808 92.4205V94.1169Z" fill="#282828"/>
<path d="M27.518 95.6473C27.5257 96.1924 27.5321 96.6459 27.5321 96.823H27.4513C25.9779 95.1169 24.2811 93.2992 22.6468 91.5484L22.443 91.33C22.4026 91.6935 22.4026 92.2994 22.4026 93.3495C22.4026 94.1977 22.443 96.298 22.4834 96.7019C22.3622 96.6615 22.241 96.6615 22.1199 96.6615C21.9987 96.6615 21.8775 96.6615 21.7563 96.7019C21.8371 96.2172 21.9583 93.6726 21.9583 92.3802C21.9583 91.1281 21.9583 90.1587 21.9179 89.7144H22.0795C23.6951 91.4916 25.8761 93.8746 27.0878 95.0863C27.0878 93.3495 27.0878 91.4108 27.007 89.876C27.0878 89.9164 27.209 89.9164 27.3302 89.9164C27.4513 89.9164 27.5321 89.9164 27.6533 89.876C27.5725 90.4414 27.4917 92.4205 27.4917 93.188C27.4917 93.7949 27.5063 94.8255 27.518 95.6473Z" fill="#282828"/>
<path d="M30.1575 95.369C30.1171 95.7325 30.0767 95.9345 29.9556 96.2576C30.3191 96.5403 30.7634 96.823 31.5712 96.823C33.106 96.823 33.9946 95.8133 33.9946 94.6016C33.9946 93.4674 33.1535 93.1305 32.3461 92.8072C31.601 92.5087 30.8845 92.2218 30.8845 91.33C30.8845 90.603 31.4096 90.1183 32.177 90.1183C32.904 90.1183 33.2272 90.6838 33.3483 91.0473H33.4695C33.5503 90.6838 33.6311 90.4414 33.7522 90.1991C33.3483 89.876 32.904 89.7144 32.2982 89.7144C30.9653 89.7144 30.1575 90.4818 30.1575 91.5724C30.1575 92.8179 31.0367 93.1728 31.8601 93.5053C32.5854 93.7981 33.2675 94.0735 33.2675 94.9247C33.2675 95.7325 32.7425 96.3788 31.8539 96.3788C31.0057 96.3788 30.521 95.8133 30.2787 95.369H30.1575Z" fill="#282828"/>
<path fill-rule="evenodd" clip-rule="evenodd" d="M36.741 96.6614C36.7814 95.8133 36.8217 94.9651 36.8217 94.1169V92.4609C36.8217 91.6127 36.7814 90.7645 36.741 89.9163C37.0641 89.9567 37.3872 89.9567 37.7103 89.9567C37.8517 89.9567 38.0839 89.9466 38.3162 89.9365C38.5484 89.9264 38.7807 89.9163 38.922 89.9163C39.5279 89.9163 41.1031 89.9163 41.1031 91.5723C41.1031 93.3091 39.4067 93.6322 38.4373 93.6322C38.2642 93.6322 38.1143 93.6206 37.9751 93.6098C37.8546 93.6005 37.742 93.5918 37.6295 93.5918V94.1169C37.6295 94.9651 37.6699 95.8133 37.7103 96.6614C37.5488 96.6211 37.3872 96.6211 37.2256 96.6211C37.0641 96.6211 36.9025 96.6211 36.741 96.6614ZM38.5181 90.2394H37.6295V93.1879C37.8315 93.2283 38.1142 93.2687 38.3162 93.2687C39.124 93.2687 40.1741 92.9456 40.1741 91.6127C40.1741 90.4818 39.5279 90.2394 38.5181 90.2394Z" fill="#282828"/>
<path d="M43.7285 94.1169C43.7285 94.9651 43.6881 95.8133 43.6477 96.6615C43.8093 96.6211 43.9708 96.6211 44.1324 96.6211C44.2939 96.6211 44.4555 96.6211 44.6171 96.6615C44.5767 95.8133 44.5363 94.9651 44.5363 94.1169V92.4205C44.5363 91.5724 44.5767 90.7243 44.6171 89.8761C44.4555 89.9165 44.2939 89.9164 44.1324 89.9164C43.9708 89.9164 43.8093 89.9164 43.6477 89.876C43.6881 90.7242 43.7285 91.5724 43.7285 92.4205V94.1169Z" fill="#282828"/>
<path fill-rule="evenodd" clip-rule="evenodd" d="M47.7674 96.6613C47.8078 95.8131 47.8482 94.965 47.8482 94.1168H47.8078V92.3397C47.8078 91.4915 47.7674 90.6434 47.7271 89.7952C48.0906 89.8356 48.4945 89.8355 48.858 89.8355C49.0397 89.8355 49.2316 89.8254 49.4234 89.8153C49.6153 89.8052 49.8071 89.7951 49.9889 89.7951C51.1198 89.7951 52.0488 90.199 52.0488 91.3703C52.0488 92.6628 50.7967 93.1879 50.0293 93.2686C50.1678 93.4418 50.4021 93.7404 50.6792 94.0936L50.6799 94.0946C51.3722 94.9771 52.3317 96.2 52.7354 96.6614C52.5335 96.621 52.3315 96.621 52.1296 96.621C51.9681 96.621 51.766 96.621 51.5641 96.6614C51.2006 96.0555 49.8677 94.238 49.0195 93.3898H48.656V94.1168C48.656 94.965 48.6964 95.8132 48.7368 96.6614C48.5753 96.621 48.4137 96.621 48.2522 96.621C48.0906 96.621 47.929 96.6209 47.7674 96.6613ZM48.6762 91.3501C48.6661 91.7035 48.656 92.0569 48.656 92.4205V93.0263C48.8176 93.0667 49.0599 93.0667 49.3023 93.0667C50.1101 93.0667 51.2006 92.7032 51.2006 91.5319C51.2006 90.4817 50.3524 90.2394 49.6658 90.2394C49.3714 90.2394 49.1515 90.2543 48.9789 90.266C48.8675 90.2736 48.7756 90.2798 48.6964 90.2798C48.6964 90.6433 48.6863 90.9967 48.6762 91.3501Z" fill="#282828"/>
<path fill-rule="evenodd" clip-rule="evenodd" d="M62.3884 94.117C62.3884 94.9652 62.348 95.8133 62.3076 96.6615C62.7519 96.6211 63.1961 96.6211 63.6404 96.6211C63.8625 96.6211 64.0848 96.6312 64.3069 96.6413C64.529 96.6514 64.7513 96.6615 64.9734 96.6615C66.5486 96.6615 68.5681 95.7326 68.5681 93.1072C68.5681 91.0877 67.5987 89.8356 65.2965 89.8356C65.0541 89.8356 64.8017 89.8457 64.5493 89.8558C64.2968 89.8659 64.0444 89.876 63.802 89.876C63.3174 89.876 62.7923 89.876 62.3076 89.8356C62.348 90.6838 62.3884 91.532 62.3884 92.3802V94.117ZM63.1962 92.4206C63.1962 92.0464 63.2069 91.6829 63.2173 91.3301C63.2271 90.9974 63.2366 90.6743 63.2366 90.3607C63.6405 90.3203 64.1656 90.2799 64.7714 90.2799C66.387 90.2799 67.5987 90.8454 67.5987 93.1476C67.5987 95.773 66.0235 96.3384 64.5695 96.3384C64.0848 96.3384 63.5597 96.298 63.277 96.2576C63.2366 95.571 63.2366 94.844 63.2366 94.1574V92.4206H63.1962Z" fill="#282828"/>
<path d="M80.9074 92.8042C81.2506 92.7942 81.5941 92.7841 81.9373 92.7841V92.4205C81.9373 91.5724 81.8969 90.7242 81.8565 89.876C82.0181 89.9164 82.1797 89.9164 82.3412 89.9164C82.5028 89.9164 82.6643 89.9164 82.8259 89.876C82.7855 90.7242 82.7451 91.5724 82.7451 92.4205V94.1169C82.7451 94.9651 82.7855 95.8133 82.8259 96.6615C82.6643 96.6211 82.5028 96.6211 82.3412 96.6211C82.1797 96.6211 82.0181 96.6211 81.8565 96.6615C81.8969 95.8133 81.9373 94.9651 81.9373 94.1169V93.2283H77.8175V94.1169C77.8175 94.9651 77.8579 95.8133 77.8983 96.6615C77.7368 96.6211 77.5752 96.6211 77.4136 96.6211C77.2521 96.6211 77.0905 96.6211 76.929 96.6615C76.9693 95.8134 77.0097 94.965 77.0097 94.1169V92.4205C77.0097 91.5724 76.9694 90.7243 76.929 89.8762C77.0905 89.9166 77.2521 89.9164 77.4136 89.9164C77.5752 89.9164 77.7368 89.9164 77.8983 89.876C77.8579 90.7242 77.8175 91.5724 77.8175 92.4205V92.7841C78.5041 92.8244 79.1907 92.8244 79.8772 92.8244C80.2205 92.8244 80.5641 92.8143 80.9074 92.8042Z" fill="#282828"/>
<path fill-rule="evenodd" clip-rule="evenodd" d="M88.3595 89.7144C87.3498 92.057 86.34 94.3593 85.2495 96.6615C85.3707 96.6211 85.4919 96.6211 85.613 96.6211C85.7342 96.6211 85.8554 96.6211 85.9765 96.6615C86.1381 96.0556 86.5016 95.0459 86.9459 93.9958H89.4501C89.52 94.1667 89.5944 94.3451 89.6701 94.5266L89.6705 94.5276C89.9883 95.2895 90.3294 96.1072 90.4598 96.6615C90.6214 96.6211 90.8233 96.6211 90.9849 96.6211C91.1464 96.6211 91.3484 96.6211 91.51 96.6615C91.0643 95.7702 89.9205 93.0462 88.992 90.835L88.9914 90.8335C88.8262 90.4401 88.6675 90.0621 88.5211 89.7144H88.3595ZM89.3289 93.5919H87.1882L88.2788 91.0877L89.3289 93.5919Z" fill="#282828"/>
<path d="M93.9736 96.6615C94.014 95.8133 94.0544 94.9651 94.0544 94.1169V92.4205C94.0544 91.5724 94.014 90.7242 93.9736 89.876C94.1352 89.9164 94.2968 89.9164 94.4583 89.9164C94.6199 89.9164 94.7814 89.9164 94.943 89.876C94.9026 90.7242 94.8622 91.5724 94.8622 92.4205V94.1169C94.8622 94.9651 94.9026 95.8133 94.943 96.6615C94.7814 96.6211 94.6199 96.6211 94.4583 96.6211C94.2968 96.6211 94.1352 96.6211 93.9736 96.6615Z" fill="#282828"/>
<path fill-rule="evenodd" clip-rule="evenodd" d="M98.578 94.1168C98.578 94.965 98.5376 95.8132 98.4972 96.6614C98.6587 96.621 98.8203 96.621 98.9819 96.621C99.1434 96.621 99.305 96.621 99.4665 96.6614C99.4261 95.8132 99.3858 94.965 99.3858 94.1168V93.3898H99.7493C100.597 94.238 101.93 96.0555 102.294 96.6614C102.496 96.621 102.698 96.621 102.859 96.621C103.061 96.621 103.263 96.621 103.465 96.6614C103.061 96.1999 102.102 94.9765 101.409 94.094C101.132 93.7406 100.898 93.4419 100.759 93.2686C101.526 93.1879 102.779 92.6628 102.779 91.3703C102.779 90.199 101.85 89.7951 100.719 89.7951C100.537 89.7951 100.345 89.8052 100.153 89.8153C99.9613 89.8254 99.7695 89.8355 99.5877 89.8355C99.2242 89.8355 98.8203 89.8355 98.4568 89.7951C98.4972 90.6433 98.5376 91.4915 98.5376 92.3397V94.1168H98.578ZM99.4463 91.3509L99.4464 91.3493C99.4565 90.9962 99.4665 90.643 99.4665 90.2798C99.5458 90.2798 99.6374 90.2736 99.7488 90.266C99.9214 90.2543 100.141 90.2394 100.436 90.2394C101.123 90.2394 101.971 90.4817 101.971 91.5319C101.971 92.7032 100.88 93.0667 100.072 93.0667C99.83 93.0667 99.5877 93.0667 99.4261 93.0263V92.4205C99.4261 92.0572 99.4362 91.704 99.4463 91.3509Z" fill="#282828"/>
<path d="M110.753 95.7304C110.775 95.717 110.796 95.7042 110.816 95.6921L110.695 96.298C110.453 96.4999 109.604 96.8635 108.635 96.8635C106.575 96.8635 105.04 95.571 105.04 93.3091C105.04 91.0473 106.575 89.7548 108.756 89.7548C109.604 89.7548 110.372 89.9568 110.897 90.1991C110.816 90.3607 110.735 90.7646 110.695 90.9665H110.654C110.372 90.6434 109.685 90.0779 108.756 90.0779C107.181 90.0779 106.01 91.0877 106.01 93.2687C106.01 95.4902 107.221 96.4596 108.756 96.4596C109.601 96.4596 110.231 96.0607 110.646 95.7978C110.663 95.7871 110.68 95.7766 110.696 95.7664C110.716 95.754 110.735 95.742 110.753 95.7304Z" fill="#282828"/>
<path fill-rule="evenodd" clip-rule="evenodd" d="M115.461 89.7144C114.452 92.057 113.442 94.3593 112.351 96.6615C112.472 96.6211 112.594 96.6211 112.715 96.6211C112.836 96.6211 112.957 96.6211 113.078 96.6615C113.24 96.0556 113.603 95.0459 114.048 93.9958H116.552C116.622 94.1667 116.696 94.3451 116.772 94.5266L116.772 94.5276C117.09 95.2895 117.431 96.1072 117.562 96.6615C117.723 96.6211 117.925 96.6211 118.087 96.6211C118.248 96.6211 118.45 96.6211 118.612 96.6615C118.166 95.77 117.022 93.0448 116.093 90.8332C115.928 90.4396 115.769 90.0622 115.623 89.7144H115.461ZM116.431 93.5919H114.29L115.381 91.0877L116.431 93.5919Z" fill="#282828"/>
<path fill-rule="evenodd" clip-rule="evenodd" d="M120.671 96.6614C120.712 95.8132 120.752 94.965 120.752 94.1168H120.712V92.3397C120.712 91.4915 120.671 90.6433 120.631 89.7951C120.995 89.8355 121.399 89.8355 121.762 89.8355C121.944 89.8355 122.136 89.8254 122.327 89.8153C122.519 89.8052 122.711 89.7951 122.893 89.7951C124.024 89.7951 124.953 90.199 124.953 91.3703C124.953 92.6628 123.701 93.1879 122.933 93.2686C123.072 93.4416 123.306 93.7398 123.582 94.0926L123.584 94.094C124.276 94.9765 125.236 96.2001 125.639 96.6614C125.438 96.621 125.236 96.621 125.034 96.621C124.872 96.621 124.67 96.621 124.468 96.6614C124.105 96.0555 122.772 94.238 121.924 93.3898H121.56V94.1168C121.56 94.9649 121.6 95.8129 121.641 96.6609C121.479 96.6205 121.318 96.621 121.156 96.621C120.995 96.621 120.833 96.621 120.671 96.6614ZM121.58 91.3501C121.57 91.7035 121.56 92.0569 121.56 92.4205V93.0263C121.722 93.0667 121.964 93.0667 122.206 93.0667C123.014 93.0667 124.105 92.7032 124.105 91.5319C124.105 90.4817 123.256 90.2394 122.57 90.2394C122.275 90.2394 122.055 90.2543 121.883 90.266C121.771 90.2736 121.68 90.2798 121.6 90.2798C121.6 90.6433 121.59 90.9967 121.58 91.3501Z" fill="#282828"/>
<path d="M128.184 94.117C128.184 94.9284 128.147 95.7397 128.108 96.5865L128.103 96.7019C128.709 96.6615 129.718 96.6615 130.324 96.6615C130.627 96.6615 131.021 96.6716 131.415 96.6817C131.809 96.6918 132.203 96.7019 132.506 96.7019C132.506 96.6615 132.495 96.611 132.485 96.5606C132.475 96.5101 132.465 96.4596 132.465 96.4192C132.465 96.3384 132.465 96.2172 132.506 96.0961C131.9 96.2172 129.921 96.2172 129.032 96.2172V93.2688C129.517 93.2688 131.536 93.2688 132.223 93.3496C132.223 93.3092 132.213 93.2587 132.203 93.2082C132.193 93.1577 132.182 93.1072 132.182 93.0668C132.182 92.986 132.182 92.8648 132.223 92.7437C131.657 92.7841 130.203 92.8245 129.032 92.8245V91.532C129.032 91.2786 129.043 91.0584 129.054 90.8481C129.063 90.6562 129.072 90.4727 129.072 90.2799C130.165 90.2799 131.257 90.3376 132.057 90.3799C132.204 90.3876 132.34 90.3948 132.465 90.4011C132.465 90.3607 132.455 90.3102 132.445 90.2597C132.435 90.2092 132.425 90.1588 132.425 90.1184C132.425 90.0376 132.425 89.9164 132.465 89.8356C131.9 89.876 130.93 89.876 130.324 89.876C129.719 89.876 128.749 89.876 128.143 89.8356C128.184 90.6838 128.224 91.532 128.224 92.3802V94.117H128.184Z" fill="#282828"/>
<path d="M55.2045 96.586C55.243 95.7394 55.28 94.9282 55.28 94.117V92.3802C55.28 91.532 55.2396 90.6838 55.1992 89.8356C55.8051 89.876 56.7744 89.876 57.3803 89.876C57.9861 89.876 58.9555 89.876 59.5209 89.8356C59.4806 89.9164 59.4806 90.0376 59.4806 90.1184C59.4806 90.1588 59.4907 90.2092 59.5007 90.2597C59.5108 90.3102 59.5209 90.3607 59.5209 90.4011C59.396 90.3948 59.2594 90.3876 59.113 90.3799C58.3133 90.3376 57.2207 90.2799 56.1282 90.2799C56.1282 90.4727 56.119 90.6562 56.1094 90.8481C56.0988 91.0584 56.0878 91.2786 56.0878 91.532V92.8245C57.2591 92.8245 58.7131 92.7841 59.2786 92.7437C59.2382 92.8649 59.2382 92.986 59.2382 93.0668C59.2382 93.1072 59.2483 93.1577 59.2584 93.2082C59.2685 93.2587 59.2786 93.3092 59.2786 93.3496C58.592 93.2688 56.5725 93.2688 56.0878 93.2688V94.7228C56.0878 95.2141 56.1044 95.5896 56.1163 95.8597C56.123 96.0115 56.1282 96.1301 56.1282 96.2172C57.0168 96.2172 58.9959 96.2172 59.6017 96.0961C59.5613 96.2172 59.5613 96.3384 59.5613 96.4192C59.5613 96.4596 59.5714 96.5101 59.5815 96.5606C59.5916 96.611 59.6017 96.6615 59.6017 96.7019C59.2988 96.7019 58.905 96.6918 58.5112 96.6817C58.1174 96.6716 57.7236 96.6615 57.4207 96.6615C56.8148 96.6615 55.805 96.6615 55.1992 96.7019L55.2045 96.586Z" fill="#282828"/>
</svg>
